<?xml version="1.0" standalone="no"?>
<!DOCTYPE svg PUBLIC "-//W3C//DTD SVG 20010904//EN"
 "http://www.w3.org/TR/2001/REC-SVG-20010904/DTD/svg10.dtd">
<svg version="1.0" xmlns="http://www.w3.org/2000/svg"
 width="260.000000pt" height="260.000000pt" viewBox="0 0 260.000000 260.000000"
 preserveAspectRatio="xMidYMid meet">
<metadata>
Created by potrace 1.14, written by Peter Selinger 2001-2017
</metadata>
<g transform="translate(0.000000,260.000000) scale(0.100000,-0.100000)"
fill="#000000" stroke="none">
<path d="M1203 2220 c-337 -48 -628 -271 -753 -578 -90 -220 -82 -488 20 -699
36 -74 132 -208 173 -242 16 -12 14 -17 -19 -62 l-36 -49 102 0 c79 0 109 -4
138 -19 138 -69 310 -101 447 -82 87 12 193 44 262 80 27 13 61 21 94 21 l51
0 -15 23 c-15 23 -13 26 58 100 81 84 152 210 180 322 18 68 21 226 6 300 -26
133 -110 279 -207 360 -32 27 -61 50 -63 52 -2 1 7 18 19 37 l22 36 -86 0
c-57 0 -112 7 -163 21 -65 18 -95 21 -178 16 -55 -3 -120 -12 -145 -19 -38
-12 -45 -18 -51 -46 -6 -28 -4 -32 10 -27 61 24 155 37 243 33 53 -2 100 -7
104 -11 5 -5 -224 -366 -266 -420 -3 -4 -73 96 -154 223 l-148 230 -96 0 -96
0 54 56 c220 225 565 308 885 213 86 -26 229 -95 293 -142 109 -81 221 -222
288 -362 19 -38 34 -62 34 -52 0 14 9 17 50 17 31 0 50 4 50 12 0 6 -16 41
-36 77 -196 358 -524 572 -899 586 -60 2 -138 0 -172 -5z m-387 -727 c104
-153 190 -283 192 -289 2 -7 -66 -112 -151 -233 l-154 -220 -24 27 c-88 98
-149 209 -185 332 -28 98 -26 298 4 404 23 78 107 256 122 256 4 0 92 -125
196 -277z m900 103 c98 -112 150 -272 140 -431 -10 -161 -75 -302 -192 -417
-38 -38 -51 -45 -61 -35 -38 39 -341 501 -335 511 4 7 80 117 170 244 l163
232 35 -27 c20 -15 55 -49 80 -77z m-441 -766 c75 -118 139 -220 142 -227 9
-22 -138 -46 -256 -41 -103 5 -242 40 -286 72 -13 9 5 41 121 214 74 112 137
202 138 200 2 -1 65 -100 141 -218z"/>
</g>
</svg>
